<svg width="206" height="39" viewBox="0 0 206 39" fill="none" xmlns="http://www.w3.org/2000/svg">
<path d="M28.536 26.904C29.016 27.5227 29.5387 27.96 30.104 28.216C30.68 28.4613 31.304 28.584 31.976 28.584C33.3307 28.584 34.3867 28.0933 35.144 27.112C35.9013 26.1307 36.28 24.6107 36.28 22.552C36.28 20.6747 35.9493 19.304 35.288 18.44C34.6373 17.576 33.704 17.144 32.488 17.144C31.6453 17.144 30.9093 17.336 30.28 17.72C29.6613 18.0933 29.08 18.632 28.536 19.336V26.904ZM28.536 16.84C29.208 16.104 29.96 15.5173 30.792 15.08C31.624 14.6427 32.5733 14.424 33.64 14.424C34.5893 14.424 35.4427 14.6107 36.2 14.984C36.968 15.3467 37.6187 15.8747 38.152 16.568C38.6853 17.2613 39.096 18.104 39.384 19.096C39.672 20.0773 39.816 21.1867 39.816 22.424C39.816 23.7467 39.6507 24.952 39.32 26.04C39 27.1173 38.536 28.0453 37.928 28.824C37.32 29.592 36.584 30.1893 35.72 30.616C34.856 31.032 33.8907 31.24 32.824 31.24C32.3013 31.24 31.8267 31.1867 31.4 31.08C30.9733 30.984 30.5787 30.84 30.216 30.648C29.8533 30.456 29.5173 30.2267 29.208 29.96C28.9093 29.6933 28.6213 29.3893 28.344 29.048L28.2 30.312C28.1467 30.5573 28.0507 30.7333 27.912 30.84C27.7733 30.9467 27.5813 31 27.336 31H25.096V7.32H28.536V16.84ZM46.4065 17.704C46.9185 16.6693 47.5372 15.8587 48.2625 15.272C48.9878 14.6747 49.8572 14.376 50.8705 14.376C51.2225 14.376 51.5532 14.4187 51.8625 14.504C52.1718 14.5787 52.4492 14.696 52.6945 14.856L52.4545 17.448C52.4118 17.6293 52.3425 17.7573 52.2465 17.832C52.1612 17.896 52.0438 17.928 51.8945 17.928C51.7345 17.928 51.5052 17.9013 51.2065 17.848C50.9078 17.784 50.5932 17.752 50.2625 17.752C49.7825 17.752 49.3558 17.8213 48.9825 17.96C48.6198 18.0987 48.2892 18.3013 47.9905 18.568C47.7025 18.8347 47.4465 19.16 47.2225 19.544C46.9985 19.928 46.7905 20.3653 46.5985 20.856V31H43.1585V14.68H45.1585C45.5212 14.68 45.7718 14.7493 45.9105 14.888C46.0492 15.016 46.1452 15.2453 46.1985 15.576L46.4065 17.704ZM63.441 23.864C62.2143 23.9067 61.1797 24.008 60.337 24.168C59.4943 24.3173 58.8117 24.5147 58.289 24.76C57.7663 24.9947 57.3877 25.2773 57.153 25.608C56.929 25.9387 56.817 26.3013 56.817 26.696C56.817 27.08 56.8757 27.4107 56.993 27.688C57.121 27.9547 57.2917 28.1787 57.505 28.36C57.729 28.5307 57.985 28.6587 58.273 28.744C58.5717 28.8187 58.897 28.856 59.249 28.856C60.145 28.856 60.913 28.6907 61.553 28.36C62.2037 28.0187 62.833 27.528 63.441 26.888V23.864ZM54.321 16.952C56.1663 15.2347 58.3637 14.376 60.913 14.376C61.8517 14.376 62.6837 14.5307 63.409 14.84C64.145 15.1387 64.7583 15.5653 65.249 16.12C65.7503 16.6747 66.129 17.336 66.385 18.104C66.6517 18.8613 66.785 19.704 66.785 20.632V31H65.249C64.9183 31 64.6677 30.952 64.497 30.856C64.3263 30.7493 64.1823 30.5413 64.065 30.232L63.729 28.904C63.313 29.2773 62.9023 29.6133 62.497 29.912C62.0917 30.2 61.6703 30.4453 61.233 30.648C60.8063 30.8507 60.3423 31 59.841 31.096C59.3503 31.2027 58.8063 31.256 58.209 31.256C57.5477 31.256 56.929 31.1653 56.353 30.984C55.7877 30.8027 55.297 30.5307 54.881 30.168C54.465 29.7947 54.1343 29.336 53.889 28.792C53.6543 28.248 53.537 27.608 53.537 26.872C53.537 26.2427 53.7023 25.6293 54.033 25.032C54.3743 24.4347 54.929 23.9013 55.697 23.432C56.4757 22.952 57.4943 22.5573 58.753 22.248C60.0223 21.9387 61.585 21.7627 63.441 21.72V20.632C63.441 19.4587 63.1903 18.584 62.689 18.008C62.1877 17.432 61.4517 17.144 60.481 17.144C59.8197 17.144 59.265 17.2293 58.817 17.4C58.369 17.56 57.9797 17.736 57.649 17.928C57.3183 18.12 57.025 18.3013 56.769 18.472C56.513 18.632 56.241 18.712 55.953 18.712C55.7183 18.712 55.5157 18.6533 55.345 18.536C55.185 18.408 55.0517 18.2533 54.945 18.072L54.321 16.952ZM84.8573 14.68L75.8653 35.64C75.7479 35.8853 75.6039 36.0773 75.4333 36.216C75.2733 36.3547 75.0226 36.424 74.6813 36.424H72.1373L75.1453 29.896L68.4893 14.68H71.4813C71.7693 14.68 71.9879 14.7493 72.1373 14.888C72.2973 15.016 72.4146 15.1707 72.4893 15.352L76.3773 24.616C76.4733 24.8827 76.5586 25.1493 76.6333 25.416C76.7186 25.672 76.7986 25.9387 76.8733 26.216C76.9586 25.9387 77.0439 25.6667 77.1293 25.4C77.2146 25.1333 77.3106 24.8667 77.4173 24.6L81.1453 15.352C81.2199 15.16 81.3426 15 81.5133 14.872C81.6946 14.744 81.8919 14.68 82.1053 14.68H84.8573ZM95.4723 23.864C94.2456 23.9067 93.2109 24.008 92.3683 24.168C91.5256 24.3173 90.8429 24.5147 90.3203 24.76C89.7976 24.9947 89.4189 25.2773 89.1843 25.608C88.9603 25.9387 88.8483 26.3013 88.8483 26.696C88.8483 27.08 88.9069 27.4107 89.0243 27.688C89.1523 27.9547 89.3229 28.1787 89.5363 28.36C89.7603 28.5307 90.0163 28.6587 90.3043 28.744C90.6029 28.8187 90.9283 28.856 91.2803 28.856C92.1763 28.856 92.9443 28.6907 93.5843 28.36C94.2349 28.0187 94.8643 27.528 95.4723 26.888V23.864ZM86.3523 16.952C88.1976 15.2347 90.3949 14.376 92.9443 14.376C93.8829 14.376 94.7149 14.5307 95.4403 14.84C96.1763 15.1387 96.7896 15.5653 97.2803 16.12C97.7816 16.6747 98.1603 17.336 98.4163 18.104C98.6829 18.8613 98.8163 19.704 98.8163 20.632V31H97.2803C96.9496 31 96.6989 30.952 96.5283 30.856C96.3576 30.7493 96.2136 30.5413 96.0963 30.232L95.7603 28.904C95.3443 29.2773 94.9336 29.6133 94.5283 29.912C94.1229 30.2 93.7016 30.4453 93.2643 30.648C92.8376 30.8507 92.3736 31 91.8723 31.096C91.3816 31.2027 90.8376 31.256 90.2403 31.256C89.5789 31.256 88.9603 31.1653 88.3843 30.984C87.8189 30.8027 87.3283 30.5307 86.9123 30.168C86.4963 29.7947 86.1656 29.336 85.9203 28.792C85.6856 28.248 85.5683 27.608 85.5683 26.872C85.5683 26.2427 85.7336 25.6293 86.0643 25.032C86.4056 24.4347 86.9603 23.9013 87.7283 23.432C88.5069 22.952 89.5256 22.5573 90.7843 22.248C92.0536 21.9387 93.6163 21.7627 95.4723 21.72V20.632C95.4723 19.4587 95.2216 18.584 94.7203 18.008C94.2189 17.432 93.4829 17.144 92.5123 17.144C91.8509 17.144 91.2963 17.2293 90.8483 17.4C90.4003 17.56 90.0109 17.736 89.6803 17.928C89.3496 18.12 89.0563 18.3013 88.8003 18.472C88.5443 18.632 88.2723 18.712 87.9843 18.712C87.7496 18.712 87.5469 18.6533 87.3763 18.536C87.2163 18.408 87.0829 18.2533 86.9763 18.072L86.3523 16.952ZM106.062 16.84C106.414 16.4773 106.777 16.152 107.15 15.864C107.534 15.5653 107.939 15.3093 108.366 15.096C108.793 14.8827 109.246 14.7173 109.726 14.6C110.206 14.4827 110.729 14.424 111.294 14.424C112.19 14.424 112.974 14.5733 113.646 14.872C114.329 15.1707 114.899 15.592 115.358 16.136C115.827 16.68 116.179 17.336 116.414 18.104C116.649 18.8613 116.766 19.6987 116.766 20.616V31H113.342V20.616C113.342 19.5173 113.086 18.664 112.574 18.056C112.073 17.448 111.305 17.144 110.27 17.144C109.502 17.144 108.787 17.32 108.126 17.672C107.475 18.024 106.862 18.504 106.286 19.112V31H102.846V14.68H104.926C105.395 14.68 105.694 14.8987 105.822 15.336L106.062 16.84ZM121.606 31V17.416L120.006 17.192C119.74 17.1387 119.521 17.0427 119.35 16.904C119.19 16.7653 119.11 16.568 119.11 16.312V14.904H121.606V13.528C121.606 12.6 121.74 11.768 122.006 11.032C122.284 10.296 122.673 9.672 123.174 9.16C123.686 8.648 124.305 8.25867 125.03 7.992C125.756 7.71467 126.572 7.576 127.478 7.576C127.852 7.576 128.204 7.60266 128.534 7.656C128.876 7.70933 129.206 7.78933 129.526 7.896L129.462 9.624C129.441 9.912 129.297 10.0827 129.03 10.136C128.774 10.1893 128.449 10.216 128.054 10.216C127.574 10.216 127.142 10.2747 126.758 10.392C126.374 10.4987 126.044 10.6853 125.766 10.952C125.5 11.2187 125.292 11.5707 125.142 12.008C125.004 12.4453 124.934 12.9893 124.934 13.64V14.904H129.398V17.384H125.046V31H121.606ZM138.433 14.424C139.639 14.424 140.727 14.6213 141.697 15.016C142.679 15.4107 143.511 15.9707 144.193 16.696C144.887 17.4213 145.42 18.3013 145.793 19.336C146.167 20.3707 146.353 21.5333 146.353 22.824C146.353 24.1147 146.167 25.2773 145.793 26.312C145.42 27.3467 144.887 28.232 144.193 28.968C143.511 29.6933 142.679 30.2533 141.697 30.648C140.727 31.0427 139.639 31.24 138.433 31.24C137.217 31.24 136.119 31.0427 135.137 30.648C134.167 30.2533 133.335 29.6933 132.641 28.968C131.948 28.232 131.415 27.3467 131.041 26.312C130.668 25.2773 130.481 24.1147 130.481 22.824C130.481 21.5333 130.668 20.3707 131.041 19.336C131.415 18.3013 131.948 17.4213 132.641 16.696C133.335 15.9707 134.167 15.4107 135.137 15.016C136.119 14.6213 137.217 14.424 138.433 14.424ZM138.433 28.552C139.905 28.552 140.999 28.0613 141.713 27.08C142.439 26.088 142.801 24.6747 142.801 22.84C142.801 21.0053 142.439 19.592 141.713 18.6C140.999 17.5973 139.905 17.096 138.433 17.096C136.94 17.096 135.831 17.5973 135.105 18.6C134.38 19.592 134.017 21.0053 134.017 22.84C134.017 24.6747 134.38 26.088 135.105 27.08C135.831 28.0613 136.94 28.552 138.433 28.552ZM152.907 17.704C153.419 16.6693 154.037 15.8587 154.763 15.272C155.488 14.6747 156.357 14.376 157.371 14.376C157.723 14.376 158.053 14.4187 158.363 14.504C158.672 14.5787 158.949 14.696 159.195 14.856L158.955 17.448C158.912 17.6293 158.843 17.7573 158.747 17.832C158.661 17.896 158.544 17.928 158.395 17.928C158.235 17.928 158.005 17.9013 157.707 17.848C157.408 17.784 157.093 17.752 156.763 17.752C156.283 17.752 155.856 17.8213 155.483 17.96C155.12 18.0987 154.789 18.3013 154.491 18.568C154.203 18.8347 153.947 19.16 153.723 19.544C153.499 19.928 153.291 20.3653 153.099 20.856V31H149.659V14.68H151.659C152.021 14.68 152.272 14.7493 152.411 14.888C152.549 15.016 152.645 15.2453 152.699 15.576L152.907 17.704ZM171.613 21C171.613 20.424 171.527 19.8907 171.357 19.4C171.197 18.8987 170.957 18.4667 170.637 18.104C170.317 17.7307 169.917 17.4427 169.437 17.24C168.967 17.0267 168.423 16.92 167.805 16.92C166.557 16.92 165.575 17.2773 164.861 17.992C164.146 18.7067 163.693 19.7093 163.501 21H171.613ZM163.405 23.112C163.447 24.04 163.591 24.8453 163.837 25.528C164.082 26.2 164.407 26.76 164.813 27.208C165.229 27.656 165.719 27.992 166.285 28.216C166.861 28.4293 167.501 28.536 168.205 28.536C168.877 28.536 169.458 28.4613 169.949 28.312C170.439 28.152 170.866 27.9813 171.229 27.8C171.591 27.608 171.901 27.4373 172.157 27.288C172.413 27.128 172.647 27.048 172.861 27.048C173.138 27.048 173.351 27.1547 173.501 27.368L174.477 28.632C174.071 29.112 173.613 29.5173 173.101 29.848C172.589 30.1787 172.045 30.4507 171.469 30.664C170.893 30.8667 170.301 31.0107 169.693 31.096C169.085 31.192 168.493 31.24 167.917 31.24C166.786 31.24 165.735 31.0533 164.765 30.68C163.805 30.296 162.967 29.736 162.253 29C161.549 28.264 160.994 27.352 160.589 26.264C160.194 25.176 159.997 23.9227 159.997 22.504C159.997 21.3733 160.173 20.3173 160.525 19.336C160.887 18.3547 161.399 17.5013 162.061 16.776C162.733 16.0507 163.543 15.48 164.493 15.064C165.453 14.6373 166.535 14.424 167.741 14.424C168.743 14.424 169.671 14.5893 170.525 14.92C171.378 15.24 172.114 15.7147 172.733 16.344C173.351 16.9733 173.831 17.7467 174.173 18.664C174.525 19.5707 174.701 20.6053 174.701 21.768C174.701 22.3013 174.642 22.6587 174.525 22.84C174.407 23.0213 174.194 23.112 173.885 23.112H163.405ZM181.157 17.704C181.669 16.6693 182.287 15.8587 183.013 15.272C183.738 14.6747 184.607 14.376 185.621 14.376C185.973 14.376 186.303 14.4187 186.613 14.504C186.922 14.5787 187.199 14.696 187.445 14.856L187.205 17.448C187.162 17.6293 187.093 17.7573 186.997 17.832C186.911 17.896 186.794 17.928 186.645 17.928C186.485 17.928 186.255 17.9013 185.957 17.848C185.658 17.784 185.343 17.752 185.013 17.752C184.533 17.752 184.106 17.8213 183.733 17.96C183.37 18.0987 183.039 18.3013 182.741 18.568C182.453 18.8347 182.197 19.16 181.973 19.544C181.749 19.928 181.541 20.3653 181.349 20.856V31H177.909V14.68H179.909C180.271 14.68 180.522 14.7493 180.661 14.888C180.799 15.016 180.895 15.2453 180.949 15.576L181.157 17.704ZM196.215 14.424C197.42 14.424 198.508 14.6213 199.479 15.016C200.46 15.4107 201.292 15.9707 201.975 16.696C202.668 17.4213 203.201 18.3013 203.575 19.336C203.948 20.3707 204.135 21.5333 204.135 22.824C204.135 24.1147 203.948 25.2773 203.575 26.312C203.201 27.3467 202.668 28.232 201.975 28.968C201.292 29.6933 200.46 30.2533 199.479 30.648C198.508 31.0427 197.42 31.24 196.215 31.24C194.999 31.24 193.9 31.0427 192.919 30.648C191.948 30.2533 191.116 29.6933 190.423 28.968C189.729 28.232 189.196 27.3467 188.823 26.312C188.449 25.2773 188.263 24.1147 188.263 22.824C188.263 21.5333 188.449 20.3707 188.823 19.336C189.196 18.3013 189.729 17.4213 190.423 16.696C191.116 15.9707 191.948 15.4107 192.919 15.016C193.9 14.6213 194.999 14.424 196.215 14.424ZM196.215 28.552C197.687 28.552 198.78 28.0613 199.495 27.08C200.22 26.088 200.583 24.6747 200.583 22.84C200.583 21.0053 200.22 19.592 199.495 18.6C198.78 17.5973 197.687 17.096 196.215 17.096C194.721 17.096 193.612 17.5973 192.887 18.6C192.161 19.592 191.799 21.0053 191.799 22.84C191.799 24.6747 192.161 26.088 192.887 27.08C193.612 28.0613 194.721 28.552 196.215 28.552Z" fill="#22272A"/>
<path d="M10.768 11.36C9.968 11.36 9.296 11.456 8.752 11.648C8.208 11.84 7.776 12.096 7.456 12.416C7.12533 12.736 6.89067 13.1093 6.752 13.536C6.60267 13.9627 6.528 14.416 6.528 14.896C6.528 15.3973 6.608 15.8453 6.768 16.24C6.928 16.6453 7.17867 16.9867 7.52 17.264C7.86133 17.552 8.304 17.7707 8.848 17.92C9.38133 18.0693 10.0267 18.144 10.784 18.144H15.12V11.36H10.768ZM15.12 27.808V21.12H11.696C10.224 21.12 9.11467 21.3867 8.368 21.92C7.61067 22.4533 7.232 23.3013 7.232 24.464C7.232 25.6693 7.57333 26.528 8.256 27.04C8.93867 27.552 10.0053 27.808 11.456 27.808H15.12ZM11.456 31.136C9.94133 31.136 8.64533 30.992 7.568 30.704C6.49067 30.416 5.61067 30.0053 4.928 29.472C4.23467 28.9387 3.728 28.2933 3.408 27.536C3.088 26.7787 2.928 25.9253 2.928 24.976C2.928 24.432 3.008 23.9093 3.168 23.408C3.328 22.9173 3.57867 22.4533 3.92 22.016C4.25067 21.5893 4.67733 21.2 5.2 20.848C5.712 20.496 6.32533 20.1973 7.04 19.952C3.86133 19.2373 2.272 17.52 2.272 14.8C2.272 13.8187 2.45867 12.912 2.832 12.08C3.20533 11.248 3.74933 10.528 4.464 9.92C5.17867 9.32267 6.05867 8.85333 7.104 8.512C8.14933 8.17067 9.344 8 10.688 8H19.424L19.424 31.136H11.456Z" fill="#59B3F2"/>
</svg>
